/* XPM */
static char *c460e070fc5c44cdf3299c0d47d9091cUX6jT6S8X845n7E4[] = {
/* columns rows colors chars-per-pixel */
"32 32 172 2 ",
"   c None",
".  c #082947",
"X  c #092A47",
"o  c #092C47",
"O  c #072A49",
"+  c #062C4A",
"@  c #062C4C",
"#  c #092948",
"$  c #092A48",
"%  c #092B48",
"&  c #092A49",
"*  c #092B49",
"=  c #092C48",
"-  c #082C49",
";  c #092C49",
":  c #082D49",
">  c #082D4A",
",  c #082D4B",
"<  c #092D4D",
"1  c #09304F",
"2  c #082E51",
"3  c #083050",
"4  c #083151",
"5  c #093053",
"6  c #093154",
"7  c #093355",
"8  c #0A365A",
"9  c #0B375B",
"0  c #0A375C",
"q  c #0A365D",
"w  c #0A375D",
"e  c #0A385F",
"r  c #0B385F",
"t  c #0A395F",
"y  c #0B3860",
"u  c #0A3960",
"i  c #0B3960",
"p  c #0B3961",
"a  c #0B3A60",
"s  c #0B3A61",
"d  c #0B3A63",
"f  c #0B3B63",
"g  c #0C3961",
"h  c #0B3B64",
"j  c #0B3D66",
"k  c #0B3D68",
"l  c #0C3F6A",
"z  c #0C3F6B",
"x  c #0C406A",
"c  c #0C406B",
"v  c #0C406C",
"b  c #0D406C",
"n  c #0D416C",
"m  c #0D416D",
"M  c #0E416D",
"N  c #0F426E",
"B  c #10436E",
"V  c #11446F",
"C  c #12446F",
"Z  c #12456F",
"A  c #124570",
"S  c #134570",
"D  c #134670",
"F  c #154671",
"G  c #144771",
"H  c #154771",
"J  c #174872",
"K  c #1C4C75",
"L  c #1D4D76",
"P  c #1D4E76",
"I  c #1E4E76",
"U  c #1F4E77",
"Y  c #205077",
"T  c #215078",
"R  c #23527A",
"E  c #24527A",
"W  c #24537A",
"Q  c #25547B",
"!  c #26547B",
"~  c #27557B",
"^  c #29567D",
"/  c #29577D",
"(  c #2A577D",
")  c #2B587E",
"_  c #2E5A7F",
"`  c #305C80",
"'  c #305C81",
"]  c #325D82",
"[  c #335E83",
"{  c #335F83",
"}  c #366084",
"|  c #366184",
" . c #376185",
".. c #376285",
"X. c #386286",
"o. c #396386",
"O. c #3C6588",
"+. c #3E6689",
"@. c #41698B",
"#. c #446B8C",
"$. c #466D8D",
"%. c #476D8E",
"&. c #486F8F",
"*. c #4B7090",
"=. c #4D7292",
"-. c #4E7392",
";. c #4F7493",
":. c #507493",
">. c #547896",
",. c #557996",
"<. c #5B7D99",
"1. c #5A7D9A",
"2. c #5C7E9A",
"3. c #6786A0",
"4. c #6A88A2",
"5. c #6A89A2",
"6. c #6C8AA4",
"7. c #6E8BA4",
"8. c #6D8CA4",
"9. c #6E8CA4",
"0. c #718EA6",
"q. c #718FA7",
"w. c #7893AB",
"e. c #88A0B3",
"r. c #8FA5B7",
"t. c #91A6B9",
"y. c #95AABB",
"u. c #99ADBD",
"i. c #9BAEBF",
"p. c #9CAFBF",
"a. c #9EB0C0",
"s. c #A1B3C1",
"d. c #A1B3C2",
"f. c #A1B4C2",
"g. c #A4B5C3",
"h. c #A8B9C6",
"j. c #AABAC7",
"k. c #ADBCC9",
"l. c #B0BFCB",
"z. c #B6C3CE",
"x. c #BBC7D1",
"c. c #BCC8D1",
"v. c #BDC9D2",
"b. c #BFCAD3",
"n. c #C1CBD4",
"m. c #C3CDD5",
"M. c #CBD3DA",
"N. c #CDD5DB",
"B. c #CED5DB",
"V. c #D0D7DD",
"C. c #D1D8DD",
"Z. c #D2D9DD",
"A. c #D1D8DE",
"S. c #D3D9DF",
"D. c #D6DBE0",
"F. c #D7DCE1",
"G. c #D8DDE1",
"H. c #DADEE2",
"J. c #DADFE3",
"K. c #DBDFE3",
"L. c #DEE2E5",
"P. c #E0E3E6",
"I. c #E1E4E6",
"U. c #E1E4E7",
"Y. c #E8EAEB",
"T. c #E9EAEB",
"R. c #EBECED",
"E. c #ECECED",
"W. c #ECEDED",
"Q. c gray93",
"!. c #EDEEEE",
"~. c #EEEEEE",
/* pixels */
"                                                                ",
"                        3 u v v v z u = 3                       ",
"                  * u v v v v v v v v v v h *                   ",
"                u v v v v v v v v v v v v v v u 3               ",
"            = z v v v v v v A  .o.J v v v v v v k O             ",
"          * v v v v v v v L e.~.~.t.Q v v v v v v z *           ",
"        = v v v v v v v v :.F.~.~.L.>.v v v v v v v v *         ",
"      6 z v v v v v v v v *.B.~.~.Z.*.v v v v v v v v v         ",
"      w v v v v v v Y Y L 3.Z.G.K.9.F v v v v v v v v v d       ",
"    o v v v v v v #.Z.I.B.d.R A C v v v v v v v v v v v v *     ",
"    u v v v v v K v.~.~.G.q.v v v v v v v v v v v v v v v h     ",
"  6 v v v v v v L v.~.~.L.w.v v v v v v v v v v v v v v v v     ",
"  = v v v v v v C 2.n.Z.a.' v J J v v v v v v v v v v v v v 3   ",
"  w v v v v v v v C O.1.^ v [ 6.7. .C v v v v v v v v v v v d   ",
"  k v v v v v v v v v v v ) f.~.~.j.[ c v v v v v v v v v v z   ",
"  z v v v v v v v v v v v #.Z.~.~.G.*.c v v v v v v v v v v v   ",
"  c v v v v v v v v v v z ^ a.~.~.f.) v c c v v v v v v v v v   ",
"  k v v v v v v v v v v v v [ 5.5. .C J E B v v v v v v v v c   ",
"  8 v v v v v v v v v v v v v B B v @.y.l.u.R v v v v v v v d   ",
"  < v v v v v v v v v v v v v v v v r.T.~.T.1.A v v v v v v =   ",
"    v v v v v v v v v v v v v v v v f.~.~.~.7.C v v v v v v 2   ",
"    u v v v v v v v v v v v v v v ~ k.~.~.G. .v v v v v v h     ",
"    = v v v v v v v v v v v =.x.m.v.3.) X.) v v v v v v v *     ",
"      8 v v v v v v v v v O.z.~.~.M.&.v v v v v v v v v e       ",
"        v v v v v v v v v :.G.~.~.P.,.v v v v v v v v z 3       ",
"        + v v v v v v v v ) a.~.~.j.[ v v v v v v v v *         ",
"          * v v v v v v v v Q 9.q.^ v v v v v v v v *           ",
"            @ c v v v v v v v v v z v v v v v z z =             ",
"              6 8 v v v v v v v v v v v v v v w                 ",
"                  < u z v v v v v v v v z d *                   ",
"                      v v v v v v v v v                         ",
"                                                                "
};
