/* XPM */
static char *ec5ff95ad39945e0d6fc901d9d6d4a7dKXJU2qkhNhfH5Z4Y[] = {
/* columns rows colors chars-per-pixel */
"16 16 51 1 ",
"  c None",
". c #072641",
"X c #062743",
"o c #082745",
"O c #0A3457",
"+ c #0A355A",
"@ c #0B375D",
"# c #0B375E",
"$ c #0B385E",
"% c #0B3960",
"& c #0B3D67",
"* c #0B3D69",
"= c #0C3E68",
"- c #0C3E69",
"; c #0C3F6B",
": c #0C406B",
"> c #0C406C",
", c #0D406C",
"< c #0D416D",
"1 c #10436E",
"2 c #11446F",
"3 c #124570",
"4 c #134570",
"5 c #134670",
"6 c #154771",
"7 c #164771",
"8 c #164772",
"9 c #2B587E",
"0 c #335E83",
"q c #356084",
"w c #3D6688",
"e c #3E6789",
"r c #496F8F",
"t c #7490A8",
"y c #7591A8",
"u c #7792A9",
"i c #7994AB",
"p c #7F98AE",
"a c #8DA4B7",
"s c #A0B2C2",
"d c #A4B5C4",
"f c #B8C5D0",
"g c #C9D2D9",
"h c #CED6DC",
"j c #D0D7DD",
"k c #DADFE3",
"l c #DEE2E5",
"z c #E3E6E8",
"x c #E4E7E8",
"c c #E7E9EA",
"v c #EEEEEE",
/* pixels */
"      +=*+      ",
"    ;>>>>;>>    ",
"  X>>>;xx>>>>o  ",
"  >>>>1vv3>>>>  ",
" >>>wlf66>>>>>> ",
" >>>gvs>>>>>>>> ",
"#>>>6p10q>>>>>>%",
"=>>>>>3vv6>>>>>=",
"=>>>>>>hh;;;;>>*",
"$>>>>>>>>tz0>>>%",
" >>>>>>>>lvt>>> ",
" >>>>>>adwr;>>> ",
"  >>>>6vv3>>>>  ",
"  .>>>;ti>>>>X  ",
"    =>::>>>;    ",
"      O&&+      "
};
