/* XPM */
static char *bee755287f1b4b7da6506a34e441a50e2qDQue4dNiZdV5uO[] = {
/* columns rows colors chars-per-pixel */
"64 64 212 2 ",
"   c None",
".  c #061F37",
"X  c #062338",
"o  c #06233B",
"O  c #07233B",
"+  c #06243A",
"@  c #06243C",
"#  c #07243D",
"$  c #07253F",
"%  c #09263F",
"&  c #072640",
"*  c #072641",
"=  c #082641",
"-  c #082741",
";  c #082745",
":  c #082844",
">  c #082944",
",  c #082845",
"<  c #082B47",
"1  c #072D4B",
"2  c #072D4C",
"3  c #082A48",
"4  c #082B48",
"5  c #082C4A",
"6  c #092D4B",
"7  c #092D4D",
"8  c #092E4C",
"9  c #092E4D",
"0  c #092D4E",
"q  c #082E4E",
"w  c #082F4E",
"e  c #082E50",
"r  c #082F50",
"t  c #092F50",
"y  c #093051",
"u  c #083052",
"i  c #093153",
"p  c #093154",
"a  c #093155",
"s  c #093255",
"d  c #093355",
"f  c #0A3354",
"g  c #0B3255",
"h  c #093256",
"j  c #0A3556",
"k  c #0C3456",
"l  c #0A3458",
"z  c #0A3459",
"x  c #0A3559",
"c  c #0A3659",
"v  c #0A355A",
"b  c #0B365C",
"n  c #0A375C",
"m  c #09375E",
"M  c #0B385E",
"N  c #0A395F",
"B  c #0B3960",
"V  c #0B3C63",
"C  c #0B3A64",
"Z  c #0B3B64",
"A  c #0B3C64",
"S  c #0B3D66",
"D  c #0B3D68",
"F  c #0B3E69",
"G  c #0C3E68",
"H  c #0C3E69",
"J  c #0C3F69",
"K  c #0C3F6A",
"L  c #0C3F6B",
"P  c #0C3F6C",
"I  c #0C406A",
"U  c #0C406B",
"Y  c #0B406C",
"T  c #0C406C",
"R  c #0D406C",
"E  c #0C416C",
"W  c #0D416C",
"Q  c #0D406D",
"!  c #0E426C",
"~  c #0E426D",
"^  c #0F426D",
"/  c #10436E",
"(  c #11436E",
")  c #11446E",
"_  c #12446E",
"`  c #12446F",
"'  c #12456F",
"]  c #134670",
"[  c #144670",
"{  c #164871",
"}  c #164872",
"|  c #184972",
" . c #194A73",
".. c #1D4D76",
"X. c #1E4E76",
"o. c #1E4E77",
"O. c #1F4F77",
"+. c #27557C",
"@. c #27567C",
"#. c #29577D",
"$. c #2B587E",
"%. c #2C587E",
"&. c #2C597E",
"*. c #356084",
"=. c #386285",
"-. c #396286",
";. c #386386",
":. c #396386",
">. c #3B6587",
",. c #3E6789",
"<. c #3F688A",
"1. c #456D8D",
"2. c #4A708F",
"3. c #4A7190",
"4. c #4B7190",
"5. c #4B7290",
"6. c #4C7392",
"7. c #4F7494",
"8. c #527794",
"9. c #547896",
"0. c #597C98",
"q. c #597C99",
"w. c #5A7D9A",
"e. c #5B7D9A",
"r. c #5B7E9A",
"t. c #5E809C",
"y. c #60819C",
"u. c #64849F",
"i. c #6786A1",
"p. c #6887A2",
"a. c #6988A1",
"s. c #6D8BA4",
"d. c #708EA5",
"f. c #718EA6",
"g. c #728EA6",
"h. c #7290A7",
"j. c #7290A8",
"k. c #7491A9",
"l. c #7692A9",
"z. c #7692AA",
"x. c #7792AA",
"c. c #7894AA",
"v. c #7994AB",
"b. c #7A95AC",
"n. c #7A96AC",
"m. c #7B96AC",
"M. c #7B96AD",
"N. c #7C96AC",
"B. c #7C97AC",
"V. c #7C96AD",
"C. c #7E98AC",
"Z. c #7E98AD",
"A. c #7F98AD",
"S. c #7E98AE",
"D. c #7F99AE",
"F. c #829BAE",
"G. c #829BAF",
"H. c #829BB0",
"J. c #829CB0",
"K. c #849CB0",
"L. c #849DB1",
"P. c #869DB1",
"I. c #889FB2",
"U. c #92A8BA",
"Y. c #98ACBE",
"T. c #9BAFBF",
"R. c #9BAFC0",
"E. c #9DB0C0",
"W. c #9EB0C0",
"Q. c #9FB2C2",
"!. c #A0B3C2",
"~. c #A7B7C5",
"^. c #ACBCC8",
"/. c #AEBDC9",
"(. c #AEBECA",
"). c #B0BECA",
"_. c #B1C0CB",
"`. c #B2C0CC",
"'. c #B5C2CD",
"]. c #B6C3CE",
"[. c #B6C4CE",
"{. c #B7C4CE",
"}. c #B8C5CF",
"|. c #BCC7D0",
" X c #BDC8D2",
".X c #BFCAD3",
"XX c #BFCBD4",
"oX c #C0CBD3",
"OX c #C1CCD4",
"+X c #C2CDD6",
"@X c #C4CFD6",
"#X c #CFD6DD",
"$X c #D2D9DE",
"%X c #D4DBE0",
"&X c #D5DBE0",
"*X c #D6DCE0",
"=X c #D7DDE1",
"-X c #D6DEE2",
";X c #D9DFE3",
":X c #DADFE3",
">X c #DCE0E4",
",X c #DDE2E5",
"<X c #E0E3E6",
"1X c #E1E4E6",
"2X c #E1E4E7",
"3X c #E2E5E8",
"4X c #E4E7E9",
"5X c #E7E9EA",
"6X c #ECEDEE",
"7X c #EDEEEE",
"8X c #EEEEEE",
"9X c #EEEEEF",
/* pixels */
"                                                                                                                                ",
"                                                  = C T T T T T T T T T T C =                                                   ",
"                                          X Z T T T T T T T T T T T T T T T T T T A +                                           ",
"                                      y T T T T T T T T T T T T T T T T T T T T T T T T h                                       ",
"                                  k Y T T T T T T T T T T T T T T T T T T T T T T T T T Y P v                                   ",
"                              1 T T T T T T T T T T T T T T T T T T T T T T T T T T T T Y L ! T 9                               ",
"                            G T T T T T T T T T T T T T T T T T T T T T T T T T T T T T T T T T ! G                             ",
"                        * T T T T T T T T T T T T T T T T T T T T T T T T T T T T T T T T T T T L Y T >                         ",
"                      y U T T T T T T T T T T T T T T G / 2.}.8X9X+X8.! T T T T T T T T T T T T T T T T h                       ",
"                    h T Y T T T T T T T T T T T T T T ! y.8X8X8X9X9X9Xf.T T T T T T T T T T T T T T T T ! v                     ",
"                  h T T T T T T T T T T T T T T T T G O.9X7X8X8X8X8X9X9X%.T T T T T T T T T T T T T T T L U n                   ",
"                y T T T T T T T T T T T T T T T T T ! l.8X8X8X8X8X7X7X7XZ.T T T T T T T T T T T T T T T T Y G h                 ",
"              > T T T T T T T T T T T T T T T T T T T Z.8X8X8X8X8X8X8X8XI.G T T T T T T T T T T T T T T T T T T 2               ",
"              T T T T T T T T T T T T T T T T T T T T M.8X8X8X8X8X8X8X8XF.! T T T T T T T T T T T T T T T T T T T               ",
"            G T T T T T T T T T T T T T T T T T T T T #.7X8X9X9X8X8X8X8X*.T T T T T T T T T T T T T T T T T T Y T !             ",
"          9 T T T T T T T T T T T T T T T T T T T T T Y.7X7X9X9X8X8X8XU.P T T T T T T T T T T T T T T T T T T Y P L h           ",
"          T T T T T T T T T T T T T T T T T ! ! ! T ^.9X.Xa.>X9X9X1Xs.T T T T T T T T T T T T T T T T T T T T T T T T           ",
"        n T T T T T T T T T T T T T T s.>X9X9X_.2.|.9X].' U T } | T T T T T T T T T T T T T T T T T T T T T T T T T T V         ",
"        T T T T T T T T T T T T T T ^.9X7X7X9X9X9X9XQ.T U Y Y T T T T T T T T T T T T T T T T T T T T T T T T T T T T T         ",
"      v T T T T T T T T T T T T T w.9X9X7X7X7X9X9X5XT T U Y T T T T T T T T T T T T T T T T T T T T T T T T T T T T T T B       ",
"      T T T T T T T T T T T T T ! ^.8X8X8X8X8X8X9X7X8.P T T T T T T T T T T T T T T T T T T T T T T T T T T T T T T T T T       ",
"    # T T T T T T T T T T T T T G $X8X8X8X8X8X8X9X9Xl.G T T T T T T T T T T T T T T T T T T T T T T T T T T T T T T T T T >     ",
"    G T T T T T T T T T T T T T T ^.8X8X8X8X8X8X9X9X9.T T T T T T T T T T T T T T T T T T T T T T T T T T T T T T T T T T G     ",
"    T T T T T T T T T T T T T T T u.8X8X8X8X8X8X9X1XT T T T T T T T T T T T T T T T T T T T T T T T T T T T T T T T T T T T     ",
"    T T T T T T T T T T T T T T T T ].9X9X9X9X7X7X2.G ! T T T T T T P Y Y T T T T T T T T T T T T T T T T T T T T T T T T T X   ",
"  9 T T T T T T T T T T T T T T T T T G.5X9X9X@X1.! Y L G ! T T T T L L Y T T T T T T T T T T T T T T T T T T T T T T T T T v   ",
"  G T T T T T T T T T T T T T T T T T T P } ' T T T Y T ! ' l.T.Q.v.| L T T T T T T T T T T T T T T T T T T T T T T T T T T P   ",
"  T T T T T T T T T T T T T T T T T T T L ! ! T T T T T :.>X8X8X9X9X1X1.T T T T T T T T T T T T T T T T T T T T T T T T T T T   ",
"  T T T T T T T T T T T T T T T T T T T T T T T T T L T $X9X8X8X8X8X8X>X' T T T T T T T T T T T T T T T T T T T T T T T T T T   ",
"  T T T T T T T T T T T T T T T T T T T T T T T T T ! i.9X9X8X8X8X8X8X9Xf.T T T T T T T T T T T T T T T T T T T T T T T T T T   ",
"  T T T T T T T T T T T T T T T T T T T T T T T T T T Z.9X7X7X8X8X8X9X9XP.T T T T T T T T T T T T T T T T T T T T T T T T T T   ",
"  T T T T T T T T T T T T T T T T T T T T T T T T T T Z.9X7X8X8X8X8X9X9XG.T T T T T T T T T T T T T T T T T T T T T T T T T T   ",
"  T T T T T T T T T T T T T T T T T T T T T T T T T Y 3.8X8X9X9X8X8X9X7Xr.U U U T T T T T T T T T T T T T T T T T T T T T T T   ",
"  T T T T T T T T T T T T T T T T T T T T T T T T T T U {.7X7X9X8X8X9X.X! L Y U T T T T T T T T T T T T T T T T T T T T T T T   ",
"  T T T T T T T T T T T T T T T T T T T T T T T T T U U | '.9X9X8X9X}.X.T T T T T T T G T T T T T T T T T T T T T T T T T T T   ",
"  T T T T T T T T T T T T T T T T T T T T T T T T T U U L ! *.M.B.>.! U T T T T T T T ! T T T T T T T T T T T T T T T T T T T   ",
"  U U Y T T T T T T T T T T T T T T T T T T T T T T T T T T T T T T T T T T T %.N.F.B.%.T T T T T T T T T T T T T T T T T T T   ",
"  L T T T T T T T T T T T T T T T T T T T T T T T T T T T T T T T T T T T T k.9X8X8X8X8Xx.T T T T T T T T T T T T T T T T T T   ",
"  4 T T T T T T T T T T T T T T T T T T T T T T T T T T T T T T T T U Y ! r.9X9X8X8X7X7X9Xr.T T T T T T T T T T T T T T T T k   ",
"    T T T T T T T T T T T T T T T T T T T T T T T T T T T T T T T T U L ! $X9X9X8X8X8X7X9X;XT T T T T T T T T T T T T T T T .   ",
"    T T T T T T T T T T T T T T T T T T T T T T T T T T T T T T T T T T ( 9X9X8X8X8X8X8X8X8X' T T T T T T T T T T T T T T T     ",
"    A T T T T T T T T T T T T T T T T T T T T T T T T T T T T T T T T T ' 8X7X7X8X8X8X8X8X8X' G T T T T T T T T T T T T T G     ",
"    O T T T T T T T T T T T T T T T T T T T T T T T T T T T T T T T T T ! $X7X9X8X8X8X8X9X$XT T T T T T T T T T T T T T T =     ",
"      T T T T T T T T T T T T T T T T T T T T T T T T T T T T T T T T T ( '.7X9X8X8X8X8X9Xw.T T T T T T T T T T T T T T T       ",
"      j T T T T T T T T T T T T T T T T T T T T T T T T T G ! ! T T ! ...X9X+X9X8X8X9X9Xf.L T T T T T T T T T T T T T T M       ",
"        T T T T T T T T T T T T T T T T T T T T T T T T T ' k.T.!.v.=.#X9XY.T @.N.F.V.#.Y U T T T T T T T T T T T T T Y         ",
"        n T T T T T T T T T T T T T T T T T T T T T T T -.>X8X8X9X9X9X7Xl.! L Y G T T T T T T T T T T T T T T T T T T B         ",
"          T T T T T T T T T T T T T T T T T T T T T T T %X9X8X8X9X9X9X1X' ! U U T T T T T T T T T T T T T T T T T T T           ",
"          2 T L U Y T T T T T T T T T T T T T T T T T p.8X8X8X8X8X8X7X7Xj.T T T T T T T T T T T T T T T T T T T T T 9           ",
"            L L T T T T T T T T T T T T T T T T T T T Z.8X8X8X8X8X8X7X9XP.T T T T T T T T T T T T T T T T T T T T G             ",
"              T T T T T T T T T T T T T T T T T T T T Z.8X8X7X7X8X8X9X9XF.Y T T T T T T T T T T T T T T T T T T T               ",
"              * T T T T T T T T T T T T T T T T T T T 6.8X8X8X9X8X8X9X9Xt.T T T T T T T T T T T T T T T T T T T 4               ",
"                9 T T T T T T T T T T T T T T T T T T T }.9X9X9X8X8X8XoXT T T T T T T T T T T T T T T T T T T y                 ",
"                  y T T T T T T T T T T T T T T T T T T [ ).9X9X8X8X{.O.T T T T T T T T T T T T T T T T T T h                   ",
"                    h P T T T T T T T T T T T T T T T T T T -.V.M.,.! L T T T T T T T T T T T T T T T T T h                     ",
"                      9 T T T T T T T T T T T T T T T T T T T T U U U L T T T T T T T T T T T T T T T T t                       ",
"                          T T T T T T T T T T T T T T T T T T T Y T T T T T T T T T T T T T T T T T T *                         ",
"                            A T T T T T T T T T T T T T T T T T T T T T T T T T T T T T T T T T T G                             ",
"                              ; T T T T T T T T T T T T T T T T T T T T T T T T T T T T T T T T 4                               ",
"                                  t T P T T T T T T T T T T T T T T T T T T T T T T T T T T h                                   ",
"                                      4 T T T T T T T T T T T T T T T T T T T T T T T T 4                                       ",
"                                            n T T T T T T T T T T T T T T T T T T B                                             ",
"                                                  # v ! T T T T T T T T T v X                                                   ",
"                                                                                                                                "
};
